<!-- Generated by IcoMoon.io -->
<svg version="1.1" xmlns="http://www.w3.org/2000/svg" width="32" height="32" viewBox="0 0 32 32">
<title>clipboard</title>
<path fill="#fff" d="M25.369 4.193h-2.895v-1.295c0-0.419-0.457-0.609-0.876-0.609h-2.247c-0.533-1.524-1.867-2.286-3.39-2.286-1.507-0.057-2.878 0.867-3.39 2.286h-2.209c-0.419 0-0.838 0.19-0.838 0.609v1.295h-2.895c-1.716 0.018-3.119 1.372-3.2 3.085v21.827c0 1.676 1.524 2.895 3.2 2.895h18.741c1.676 0 3.2-1.219 3.2-2.895v-21.827c-0.081-1.714-1.484-3.067-3.2-3.086zM11.047 3.812h2.095c0.366-0.045 0.659-0.323 0.724-0.686 0.226-0.982 1.087-1.688 2.095-1.714 0.998 0.030 1.847 0.738 2.057 1.714 0.068 0.375 0.381 0.657 0.762 0.686h2.171v3.047h-9.904v-3.047zM27.045 29.105c0 0.838-0.838 1.371-1.676 1.371h-18.741c-0.838 0-1.676-0.533-1.676-1.371v-21.827c0.078-0.872 0.8-1.546 1.676-1.562h2.895v1.943c0.040 0.427 0.41 0.746 0.838 0.724h11.237c0.436 0.024 0.817-0.291 0.876-0.724v-1.943h2.895c0.876 0.016 1.598 0.689 1.676 1.562v21.827h0z"></path>
<path fill="#fff" d="M13.065 17.030c-0.286-0.301-0.76-0.318-1.067-0.038l-2.438 2.324-1.028-1.067c-0.286-0.301-0.76-0.318-1.067-0.038-0.295 0.309-0.295 0.796 0 1.105l1.562 1.6c0.135 0.151 0.33 0.235 0.533 0.229 0.201-0.003 0.393-0.085 0.533-0.229l2.971-2.819c0.295-0.27 0.314-0.728 0.044-1.023-0.014-0.015-0.028-0.030-0.044-0.044z"></path>
<path fill="#fff" d="M23.998 18.668h-8.761c-0.421 0-0.762 0.341-0.762 0.762s0.341 0.762 0.762 0.762h8.761c0.421 0 0.762-0.341 0.762-0.762s-0.341-0.762-0.762-0.762z"></path>
<path fill="#fff" d="M13.065 10.935c-0.286-0.301-0.76-0.318-1.067-0.038l-2.438 2.324-1.028-1.067c-0.286-0.301-0.76-0.318-1.067-0.038-0.295 0.309-0.295 0.796 0 1.105l1.562 1.6c0.135 0.151 0.33 0.235 0.533 0.229 0.201-0.003 0.393-0.085 0.533-0.229l2.971-2.819c0.295-0.27 0.314-0.728 0.044-1.023-0.014-0.015-0.028-0.030-0.044-0.044z"></path>
<path fill="#fff" d="M23.998 12.573h-8.761c-0.421 0-0.762 0.341-0.762 0.762s0.341 0.762 0.762 0.762h8.761c0.421 0 0.762-0.341 0.762-0.762s-0.341-0.762-0.762-0.762z"></path>
<path fill="#fff" d="M13.065 23.124c-0.286-0.301-0.76-0.318-1.067-0.038l-2.438 2.324-1.028-1.067c-0.286-0.301-0.76-0.318-1.067-0.038-0.295 0.309-0.295 0.796 0 1.105l1.562 1.6c0.135 0.151 0.33 0.235 0.533 0.228 0.201-0.003 0.393-0.085 0.533-0.228l2.971-2.819c0.295-0.27 0.314-0.728 0.044-1.023-0.014-0.015-0.028-0.030-0.044-0.044z"></path>
<path fill="#fff" d="M23.998 24.763h-8.761c-0.421 0-0.762 0.341-0.762 0.762s0.341 0.762 0.762 0.762h8.761c0.421 0 0.762-0.341 0.762-0.762s-0.341-0.762-0.762-0.762z"></path>
</svg>
