<!-- Generated by IcoMoon.io -->
<svg version="1.1" xmlns="http://www.w3.org/2000/svg" width="32" height="32" viewBox="0 0 32 32">
<title>exitmodal</title>
<path fill="#fff" opacity="0.6" d="M19.524 16l11.964-11.965c0.329-0.329 0.511-0.769 0.511-1.237s-0.182-0.909-0.511-1.238l-1.048-1.048c-0.33-0.33-0.769-0.511-1.238-0.511s-0.908 0.181-1.237 0.511l-11.964 11.964-11.965-11.964c-0.329-0.33-0.769-0.511-1.238-0.511s-0.908 0.181-1.237 0.511l-1.049 1.048c-0.683 0.683-0.683 1.793 0 2.475l11.965 11.965-11.965 11.964c-0.329 0.33-0.511 0.769-0.511 1.238s0.181 0.908 0.511 1.238l1.049 1.048c0.329 0.33 0.769 0.511 1.237 0.511s0.908-0.181 1.238-0.511l11.965-11.964 11.964 11.964c0.33 0.33 0.769 0.511 1.237 0.511h0.001c0.469 0 0.908-0.181 1.238-0.511l1.048-1.048c0.329-0.329 0.511-0.769 0.511-1.238s-0.182-0.908-0.511-1.238l-11.964-11.965z"></path>
</svg>
